<svg width="142" height="42" viewBox="0 0 142 42" fill="none" xmlns="http://www.w3.org/2000/svg">
    <path d="M1.232 28V16.08H3.12V26.32H8.272V28H1.232ZM9.857 28V16.08H17.713V17.76H11.745V21.184H17.393V22.864H11.745V26.32H17.713V28H9.857ZM21.5784 28V17.76H18.4104V16.08H26.5704V17.76H23.4504V28H21.5784ZM28.27 20.352V19.472C28.622 19.3867 28.894 19.232 29.086 19.008C29.278 18.7733 29.3953 18.4907 29.438 18.16H28.59V16.08H30.43V17.44C30.43 18.2187 30.2487 18.864 29.886 19.376C29.5233 19.8773 28.9847 20.2027 28.27 20.352ZM37.408 28.192C36.6613 28.192 35.968 28.0533 35.328 27.776C34.688 27.488 34.144 27.0987 33.696 26.608C33.248 26.1173 32.9173 25.552 32.704 24.912L34.304 24.24C34.592 24.976 35.0133 25.5413 35.568 25.936C36.1227 26.3307 36.7627 26.528 37.488 26.528C37.9147 26.528 38.288 26.464 38.608 26.336C38.928 26.1973 39.1733 26.0053 39.344 25.76C39.5253 25.5147 39.616 25.232 39.616 24.912C39.616 24.4747 39.4933 24.128 39.248 23.872C39.0027 23.616 38.64 23.4133 38.16 23.264L35.92 22.56C35.024 22.2827 34.3413 21.8613 33.872 21.296C33.4027 20.72 33.168 20.048 33.168 19.28C33.168 18.608 33.3333 18.0213 33.664 17.52C33.9947 17.008 34.448 16.608 35.024 16.32C35.6107 16.032 36.2773 15.888 37.024 15.888C37.7387 15.888 38.3893 16.016 38.976 16.272C39.5627 16.5173 40.064 16.8587 40.48 17.296C40.9067 17.7333 41.216 18.24 41.408 18.816L39.84 19.504C39.6053 18.8747 39.2373 18.3893 38.736 18.048C38.2453 17.7067 37.6747 17.536 37.024 17.536C36.6293 17.536 36.2827 17.6053 35.984 17.744C35.6853 17.872 35.4507 18.064 35.28 18.32C35.12 18.5653 35.04 18.8533 35.04 19.184C35.04 19.568 35.1627 19.9093 35.408 20.208C35.6533 20.5067 36.0267 20.7307 36.528 20.88L38.608 21.536C39.5573 21.824 40.272 22.24 40.752 22.784C41.232 23.3173 41.472 23.984 41.472 24.784C41.472 25.4453 41.296 26.032 40.944 26.544C40.6027 27.056 40.128 27.4613 39.52 27.76C38.912 28.048 38.208 28.192 37.408 28.192ZM48.5003 28V17.76H45.3323V16.08H53.4923V17.76H50.3723V28H48.5003ZM53.051 28L57.243 16.08H59.579L63.771 28H61.755L60.843 25.328H55.995L55.067 28H53.051ZM56.539 23.648H60.267L58.155 17.408H58.683L56.539 23.648ZM65.1851 28V16.08H67.0731V26.32H72.2251V28H65.1851ZM73.8101 28V16.08H75.6981V22.544L75.2021 22.352L80.5941 16.08H82.9461L78.1781 21.664L78.2741 20.32L83.1381 28H80.9141L77.4261 22.544L75.6981 24.56V28H73.8101Z" fill="black"/>
    <rect x="100" width="42" height="42" rx="21" fill="#1C1B1F"/>
    <mask id="mask0_2186_336" style="mask-type:alpha" maskUnits="userSpaceOnUse" x="108" y="9" width="24" height="24">
    <rect x="108" y="9" width="24" height="24" fill="#D9D9D9"/>
    </mask>
    <g mask="url(#mask0_2186_336)">
    <path d="M124 31V28.75C123.067 28.45 122.283 27.9167 121.65 27.15C121.017 26.3833 120.65 25.5 120.55 24.5H122.55C122.683 25.2167 123.021 25.8125 123.562 26.2875C124.104 26.7625 124.75 27 125.5 27H128.5C128.917 27 129.271 27.1458 129.562 27.4375C129.854 27.7292 130 28.0833 130 28.5V31H124ZM127 26C126.45 26 125.979 25.8042 125.588 25.4125C125.196 25.0208 125 24.55 125 24C125 23.45 125.196 22.9792 125.588 22.5875C125.979 22.1958 126.45 22 127 22C127.55 22 128.021 22.1958 128.413 22.5875C128.804 22.9792 129 23.45 129 24C129 24.55 128.804 25.0208 128.413 25.4125C128.021 25.8042 127.55 26 127 26ZM117 23C117 20.5 117.875 18.375 119.625 16.625C121.375 14.875 123.5 14 126 14V16C124.05 16 122.396 16.6792 121.038 18.0375C119.679 19.3958 119 21.05 119 23H117ZM121 23C121 21.6167 121.488 20.4375 122.463 19.4625C123.438 18.4875 124.617 18 126 18V20C125.167 20 124.458 20.2917 123.875 20.875C123.292 21.4583 123 22.1667 123 23H121ZM110 20V17.5C110 17.0833 110.146 16.7292 110.438 16.4375C110.729 16.1458 111.083 16 111.5 16H114.5C115.25 16 115.896 15.7625 116.438 15.2875C116.979 14.8125 117.317 14.2167 117.45 13.5H119.45C119.35 14.5 118.983 15.3833 118.35 16.15C117.717 16.9167 116.933 17.45 116 17.75V20H110ZM113 15C112.45 15 111.979 14.8042 111.587 14.4125C111.196 14.0208 111 13.55 111 13C111 12.45 111.196 11.9792 111.587 11.5875C111.979 11.1958 112.45 11 113 11C113.55 11 114.021 11.1958 114.412 11.5875C114.804 11.9792 115 12.45 115 13C115 13.55 114.804 14.0208 114.412 14.4125C114.021 14.8042 113.55 15 113 15Z" fill="#F6F6FF"/>
    </g>
</svg>
